<svg width="20" height="20" viewBox="0 0 20 20" fill="none" xmlns="http://www.w3.org/2000/svg">
<g clip-path="url(#clip0_2086_388)">
<path d="M18.3437 2.72565H13.4894C12.6779 2.7251 11.8905 3.00094 11.2568 3.50774C10.6231 4.01454 10.1809 4.72207 10.0031 5.51377C9.82487 4.72228 9.38258 4.01501 8.74898 3.50829C8.11537 3.00156 7.32818 2.72555 6.51687 2.72565H1.66624C1.22421 2.72581 0.80033 2.90148 0.487766 3.21405C0.175202 3.52661 -0.000467592 3.95049 -0.00063324 4.39252V12.9275C-0.000467592 13.3696 0.175202 13.7934 0.487766 14.106C0.80033 14.4186 1.22421 14.5942 1.66624 14.5944H4.78062C8.32937 14.5944 9.38812 15.4413 9.89499 17.1988C9.91937 17.2963 10.0756 17.2963 10.1031 17.1988C10.6137 15.4419 11.6725 14.5944 15.2175 14.5944H18.3319C18.7739 14.5942 19.1978 14.4186 19.5103 14.106C19.8229 13.7934 19.9986 13.3696 19.9987 12.9275V4.39627C19.9988 3.95573 19.8247 3.53303 19.5145 3.22024C19.2043 2.90745 18.783 2.7299 18.3425 2.72627L18.3437 2.72565ZM8.40249 11.9406C8.40266 11.9566 8.39964 11.9725 8.3936 11.9872C8.38757 12.002 8.37864 12.0155 8.36735 12.0268C8.35606 12.038 8.34263 12.047 8.32784 12.053C8.31305 12.059 8.29721 12.0621 8.28124 12.0619H2.71499C2.69905 12.062 2.68324 12.0589 2.66849 12.0528C2.65375 12.0468 2.64035 12.0378 2.62907 12.0266C2.61779 12.0153 2.60887 12.0019 2.6028 11.9871C2.59674 11.9724 2.59366 11.9566 2.59374 11.9406V11.1456C2.59374 11.08 2.64562 11.0244 2.71499 11.0244H8.28437C8.34999 11.0244 8.40562 11.0763 8.40562 11.1456V11.9406H8.40249ZM8.40249 9.82627C8.40258 9.84222 8.3995 9.85802 8.39343 9.87277C8.38737 9.88752 8.37844 9.90092 8.36716 9.91219C8.35589 9.92347 8.34249 9.9324 8.32774 9.93846C8.31299 9.94453 8.29719 9.94761 8.28124 9.94752H2.71499C2.69905 9.94761 2.68324 9.94453 2.66849 9.93846C2.65375 9.9324 2.64035 9.92347 2.62907 9.91219C2.61779 9.90092 2.60887 9.88752 2.6028 9.87277C2.59674 9.85802 2.59366 9.84222 2.59374 9.82627V9.03127C2.59374 8.96502 2.64562 8.91002 2.71499 8.91002H8.28437C8.34999 8.91002 8.40562 8.9619 8.40562 9.03127V9.82627H8.40249ZM8.40249 7.7119C8.40258 7.72784 8.3995 7.74365 8.39343 7.7584C8.38737 7.77314 8.37844 7.78654 8.36716 7.79782C8.35589 7.80909 8.34249 7.81802 8.32774 7.82409C8.31299 7.83015 8.29719 7.83323 8.28124 7.83315H2.71499C2.69905 7.83323 2.68324 7.83015 2.66849 7.82409C2.65375 7.81802 2.64035 7.80909 2.62907 7.79782C2.61779 7.78654 2.60887 7.77314 2.6028 7.7584C2.59674 7.74365 2.59366 7.72784 2.59374 7.7119V6.9169C2.59374 6.85127 2.64562 6.79565 2.71499 6.79565H8.28437C8.34999 6.79565 8.40562 6.84752 8.40562 6.9169V7.7119H8.40249ZM17.4062 11.9375C17.4063 11.9535 17.4032 11.9693 17.3972 11.984C17.3911 11.9988 17.3822 12.0122 17.3709 12.0234C17.3596 12.0347 17.3462 12.0436 17.3315 12.0497C17.3167 12.0558 17.3009 12.0589 17.285 12.0588H11.7187C11.7028 12.0589 11.687 12.0558 11.6722 12.0497C11.6575 12.0436 11.6441 12.0347 11.6328 12.0234C11.6215 12.0122 11.6126 11.9988 11.6066 11.984C11.6005 11.9693 11.5974 11.9535 11.5975 11.9375V11.1425C11.5975 11.0769 11.6494 11.0213 11.7187 11.0213H17.2881C17.3544 11.0213 17.4094 11.0731 17.4094 11.1425V11.9375H17.4062ZM17.4062 9.82315C17.4064 9.83912 17.4034 9.85496 17.3974 9.86975C17.3913 9.88453 17.3824 9.89796 17.3711 9.90926C17.3598 9.92055 17.3464 9.92947 17.3316 9.93551C17.3168 9.94154 17.301 9.94456 17.285 9.9444H11.7187C11.7028 9.94448 11.687 9.9414 11.6722 9.93534C11.6575 9.92927 11.6441 9.92034 11.6328 9.90907C11.6215 9.89779 11.6126 9.88439 11.6066 9.86965C11.6005 9.8549 11.5974 9.83909 11.5975 9.82315V9.02815C11.5975 8.96252 11.6494 8.9069 11.7187 8.9069H17.2881C17.3544 8.9069 17.4094 8.95877 17.4094 9.02815V9.82315H17.4062ZM17.4062 7.70815C17.4063 7.72409 17.4032 7.7399 17.3972 7.75465C17.3911 7.76939 17.3822 7.78279 17.3709 7.79407C17.3596 7.80534 17.3462 7.81427 17.3315 7.82034C17.3167 7.8264 17.3009 7.82948 17.285 7.8294H11.7187C11.7028 7.82948 11.687 7.8264 11.6722 7.82034C11.6575 7.81427 11.6441 7.80534 11.6328 7.79407C11.6215 7.78279 11.6126 7.76939 11.6066 7.75465C11.6005 7.7399 11.5974 7.72409 11.5975 7.70815V6.91627C11.5975 6.85065 11.6494 6.79502 11.7187 6.79502H17.2881C17.3544 6.79502 17.4094 6.8469 17.4094 6.91627V7.70815H17.4062Z" fill="white"/>
</g>
<defs>
<clipPath id="clip0_2086_388">
<rect width="20" height="20" fill="white"/>
</clipPath>
</defs>
</svg>
