<svg width="32" height="32" viewBox="0 0 32 32" fill="none" xmlns="http://www.w3.org/2000/svg">
<path d="M19.125 14.125C19.125 14.9538 18.7958 15.7486 18.2097 16.3347C17.6237 16.9207 16.8288 17.25 16 17.25C15.1712 17.25 14.3763 16.9207 13.7903 16.3347C13.2042 15.7486 12.875 14.9538 12.875 14.125C12.875 13.2962 13.2042 12.5013 13.7903 11.9153C14.3763 11.3292 15.1712 11 16 11C16.8288 11 17.6237 11.3292 18.2097 11.9153C18.7958 12.5013 19.125 13.2962 19.125 14.125Z" stroke="#A19CC5" stroke-width="1.5" stroke-linecap="round" stroke-linejoin="round"/>
<path d="M28.5 14.125V7.78375C28.5 7.07375 28.095 6.43125 27.4162 6.22125C26.2375 5.85375 24.0988 5.375 21 5.375C15.275 5.375 13.7462 7.47125 5.8475 5.905C4.65125 5.6675 3.5 6.55625 3.5 7.775V20.2962C3.5 21.1562 4.09125 21.9125 4.93125 22.0975C11.89 23.6325 14.1962 22.4975 17.875 21.9812" stroke="#A19CC5" stroke-width="1.5" stroke-linecap="round" stroke-linejoin="round"/>
<path d="M3.5 10.375C5.93875 10.375 8.13125 8.38125 8.41125 6.3175M24.125 6C24.125 8.55 26.3312 10.9612 28.5 10.9612M8.5 22.245C8.5 20.9189 7.97322 19.6471 7.03553 18.7094C6.09785 17.7718 4.82608 17.245 3.5 17.245M21 20.375C21 20.0435 21.1317 19.7255 21.3661 19.4911C21.6005 19.2567 21.9185 19.125 22.25 19.125H28.5L26.625 16.625M28.5 22.875C28.5 23.2065 28.3683 23.5244 28.1339 23.7589C27.8995 23.9933 27.5815 24.125 27.25 24.125H21L22.875 26.625" stroke="#A19CC5" stroke-width="1.5" stroke-linecap="round" stroke-linejoin="round"/>
</svg>
